<mxfile host="app.diagrams.net" agent="Mozilla/5.0 (Macintosh; Intel Mac OS X 10_15_7) AppleWebKit/537.36 (KHTML, like Gecko) Chrome/130.0.0.0 Safari/537.36" version="24.8.0">
  <diagram id="Ht1M8jgEwFfnCIfOTk4-" name="Page-1">
    <mxGraphModel dx="1590" dy="1654" grid="1" gridSize="10" guides="1" tooltips="1" connect="1" arrows="1" fold="1" page="1" pageScale="1" pageWidth="1169" pageHeight="827" math="0" shadow="0">
      <root>
        <mxCell id="0" />
        <mxCell id="1" parent="0" />
        <mxCell id="eDAjQBh9nqvi1OD6s-QJ-45" value="" style="edgeStyle=orthogonalEdgeStyle;rounded=0;orthogonalLoop=1;jettySize=auto;html=1;" edge="1" parent="1" source="UEzPUAAOIrF-is8g5C7q-110" target="eDAjQBh9nqvi1OD6s-QJ-43">
          <mxGeometry relative="1" as="geometry" />
        </mxCell>
        <mxCell id="UEzPUAAOIrF-is8g5C7q-110" value="User App" style="outlineConnect=0;gradientColor=none;fontColor=#545B64;strokeColor=none;fillColor=#879196;dashed=0;verticalLabelPosition=bottom;verticalAlign=top;align=center;html=1;fontSize=12;fontStyle=0;aspect=fixed;shape=mxgraph.aws4.illustration_notification;pointerEvents=1;labelBackgroundColor=#ffffff;" parent="1" vertex="1">
          <mxGeometry x="55" y="208.5" width="100" height="81" as="geometry" />
        </mxCell>
        <mxCell id="eDAjQBh9nqvi1OD6s-QJ-6" style="edgeStyle=orthogonalEdgeStyle;rounded=0;orthogonalLoop=1;jettySize=auto;html=1;entryX=0;entryY=0.25;entryDx=0;entryDy=0;" edge="1" parent="1" source="UEzPUAAOIrF-is8g5C7q-116" target="eDAjQBh9nqvi1OD6s-QJ-4">
          <mxGeometry relative="1" as="geometry" />
        </mxCell>
        <mxCell id="eDAjQBh9nqvi1OD6s-QJ-58" style="edgeStyle=orthogonalEdgeStyle;rounded=0;orthogonalLoop=1;jettySize=auto;html=1;entryX=0.5;entryY=0;entryDx=0;entryDy=0;" edge="1" parent="1" source="UEzPUAAOIrF-is8g5C7q-116" target="eDAjQBh9nqvi1OD6s-QJ-51">
          <mxGeometry relative="1" as="geometry" />
        </mxCell>
        <mxCell id="UEzPUAAOIrF-is8g5C7q-116" value="&lt;b&gt;Amazon S3&lt;/b&gt;&lt;div&gt;User data&lt;/div&gt;" style="outlineConnect=0;fontColor=#232F3E;gradientColor=#60A337;gradientDirection=north;fillColor=#277116;strokeColor=#ffffff;dashed=0;verticalLabelPosition=bottom;verticalAlign=top;align=center;html=1;fontSize=12;fontStyle=0;aspect=fixed;shape=mxgraph.aws4.resourceIcon;resIcon=mxgraph.aws4.s3;labelBackgroundColor=#ffffff;" parent="1" vertex="1">
          <mxGeometry x="350.0000000000002" y="20" width="78" height="78" as="geometry" />
        </mxCell>
        <mxCell id="eDAjQBh9nqvi1OD6s-QJ-60" style="edgeStyle=orthogonalEdgeStyle;rounded=0;orthogonalLoop=1;jettySize=auto;html=1;" edge="1" parent="1" source="UEzPUAAOIrF-is8g5C7q-119">
          <mxGeometry relative="1" as="geometry">
            <mxPoint x="740" y="247.50000000000023" as="targetPoint" />
          </mxGeometry>
        </mxCell>
        <mxCell id="UEzPUAAOIrF-is8g5C7q-119" value="&lt;b style=&quot;font-size: 14px;&quot;&gt;Amazon&lt;br&gt;DynamoDB&lt;/b&gt;" style="outlineConnect=0;fontColor=#232F3E;gradientColor=#4D72F3;gradientDirection=north;fillColor=#3334B9;strokeColor=#ffffff;dashed=0;verticalLabelPosition=bottom;verticalAlign=top;align=center;html=1;fontSize=12;fontStyle=0;aspect=fixed;shape=mxgraph.aws4.resourceIcon;resIcon=mxgraph.aws4.dynamodb;labelBackgroundColor=#ffffff;spacingTop=5;" parent="1" vertex="1">
          <mxGeometry x="600.0000000000002" y="208.5" width="78" height="78" as="geometry" />
        </mxCell>
        <mxCell id="eDAjQBh9nqvi1OD6s-QJ-4" value="&lt;div style=&quot;text-align: justify;&quot;&gt;&lt;strong style=&quot;font-size: 16px; background-color: initial;&quot;&gt;Dados de Usuários&lt;/strong&gt;&lt;span style=&quot;font-size: 16px; background-color: initial;&quot;&gt;: Perfil, preferências declaradas, interações passadas e localização atual.&lt;/span&gt;&lt;/div&gt;&lt;div style=&quot;text-align: justify;&quot;&gt;&lt;font style=&quot;font-size: 16px;&quot;&gt;&lt;strong&gt;Dados de Restaurantes&lt;/strong&gt;: Localização, tipo de cozinha, avaliações e horários de funcionamento.&lt;/font&gt;&lt;/div&gt;" style="text;html=1;align=center;verticalAlign=middle;whiteSpace=wrap;rounded=0;" vertex="1" parent="1">
          <mxGeometry x="428" y="-110" width="350" height="120" as="geometry" />
        </mxCell>
        <mxCell id="eDAjQBh9nqvi1OD6s-QJ-7" value="&lt;div style=&quot;text-align: justify;&quot;&gt;&lt;b style=&quot;font-size: 16px; background-color: initial;&quot;&gt;Dados&lt;/b&gt;&lt;span style=&quot;font-size: 16px; background-color: initial;&quot;&gt;:&amp;nbsp;&lt;/span&gt;&lt;code style=&quot;font-size: 16px; background-color: initial;&quot;&gt;user_id&lt;/code&gt;&lt;span style=&quot;font-size: 16px; background-color: initial;&quot;&gt;, &lt;/span&gt;&lt;code style=&quot;font-size: 16px; background-color: initial;&quot;&gt;latitude&lt;/code&gt;&lt;span style=&quot;font-size: 16px; background-color: initial;&quot;&gt;, &lt;/span&gt;&lt;code style=&quot;font-size: 16px; background-color: initial;&quot;&gt;longitude&lt;/code&gt;&lt;span style=&quot;font-size: 16px; background-color: initial;&quot;&gt;, &lt;/span&gt;&lt;code style=&quot;font-size: 16px; background-color: initial;&quot;&gt;timestamp, weather, temp data.&lt;/code&gt;&lt;/div&gt;" style="text;html=1;align=center;verticalAlign=middle;whiteSpace=wrap;rounded=0;" vertex="1" parent="1">
          <mxGeometry x="494.5" y="110" width="310" height="30" as="geometry" />
        </mxCell>
        <mxCell id="eDAjQBh9nqvi1OD6s-QJ-12" style="edgeStyle=orthogonalEdgeStyle;rounded=0;orthogonalLoop=1;jettySize=auto;html=1;" edge="1" parent="1" source="eDAjQBh9nqvi1OD6s-QJ-9" target="eDAjQBh9nqvi1OD6s-QJ-7">
          <mxGeometry relative="1" as="geometry" />
        </mxCell>
        <mxCell id="eDAjQBh9nqvi1OD6s-QJ-57" value="" style="edgeStyle=orthogonalEdgeStyle;rounded=0;orthogonalLoop=1;jettySize=auto;html=1;" edge="1" parent="1" source="eDAjQBh9nqvi1OD6s-QJ-9" target="UEzPUAAOIrF-is8g5C7q-119">
          <mxGeometry relative="1" as="geometry" />
        </mxCell>
        <mxCell id="eDAjQBh9nqvi1OD6s-QJ-9" value="" style="sketch=0;points=[[0,0,0],[0.25,0,0],[0.5,0,0],[0.75,0,0],[1,0,0],[0,1,0],[0.25,1,0],[0.5,1,0],[0.75,1,0],[1,1,0],[0,0.25,0],[0,0.5,0],[0,0.75,0],[1,0.25,0],[1,0.5,0],[1,0.75,0]];outlineConnect=0;fontColor=#232F3E;fillColor=#8C4FFF;strokeColor=#ffffff;dashed=0;verticalLabelPosition=bottom;verticalAlign=top;align=center;html=1;fontSize=12;fontStyle=0;aspect=fixed;shape=mxgraph.aws4.resourceIcon;resIcon=mxgraph.aws4.managed_streaming_for_kafka;" vertex="1" parent="1">
          <mxGeometry x="450" y="208.5" width="78" height="78" as="geometry" />
        </mxCell>
        <mxCell id="eDAjQBh9nqvi1OD6s-QJ-13" value="&lt;font size=&quot;1&quot; style=&quot;&quot;&gt;&lt;b style=&quot;font-size: 13px;&quot;&gt;Kafka&lt;/b&gt;&lt;/font&gt;&lt;div&gt;&lt;span style=&quot;color: rgb(35, 47, 62); text-wrap-mode: nowrap; background-color: rgb(255, 255, 255);&quot;&gt;Real time data&lt;/span&gt;&lt;font size=&quot;1&quot; style=&quot;&quot;&gt;&lt;b style=&quot;font-size: 13px;&quot;&gt;&lt;/b&gt;&lt;/font&gt;&lt;/div&gt;" style="text;html=1;align=center;verticalAlign=middle;whiteSpace=wrap;rounded=0;" vertex="1" parent="1">
          <mxGeometry x="450" y="300" width="89" height="30" as="geometry" />
        </mxCell>
        <mxCell id="eDAjQBh9nqvi1OD6s-QJ-25" style="edgeStyle=orthogonalEdgeStyle;rounded=0;orthogonalLoop=1;jettySize=auto;html=1;" edge="1" parent="1" source="eDAjQBh9nqvi1OD6s-QJ-16" target="eDAjQBh9nqvi1OD6s-QJ-23">
          <mxGeometry relative="1" as="geometry" />
        </mxCell>
        <mxCell id="eDAjQBh9nqvi1OD6s-QJ-16" value="" style="sketch=0;points=[[0,0,0],[0.25,0,0],[0.5,0,0],[0.75,0,0],[1,0,0],[0,1,0],[0.25,1,0],[0.5,1,0],[0.75,1,0],[1,1,0],[0,0.25,0],[0,0.5,0],[0,0.75,0],[1,0.25,0],[1,0.5,0],[1,0.75,0]];outlineConnect=0;fontColor=#232F3E;fillColor=#01A88D;strokeColor=#ffffff;dashed=0;verticalLabelPosition=bottom;verticalAlign=top;align=center;html=1;fontSize=12;fontStyle=0;aspect=fixed;shape=mxgraph.aws4.resourceIcon;resIcon=mxgraph.aws4.sagemaker;" vertex="1" parent="1">
          <mxGeometry x="942" y="200" width="78" height="78" as="geometry" />
        </mxCell>
        <mxCell id="eDAjQBh9nqvi1OD6s-QJ-37" value="" style="edgeStyle=orthogonalEdgeStyle;rounded=0;orthogonalLoop=1;jettySize=auto;html=1;" edge="1" parent="1" source="eDAjQBh9nqvi1OD6s-QJ-18" target="eDAjQBh9nqvi1OD6s-QJ-36">
          <mxGeometry relative="1" as="geometry" />
        </mxCell>
        <mxCell id="eDAjQBh9nqvi1OD6s-QJ-18" value="" style="aspect=fixed;sketch=0;html=1;dashed=0;whitespace=wrap;verticalLabelPosition=bottom;verticalAlign=top;fillColor=#2875E2;strokeColor=#ffffff;points=[[0.005,0.63,0],[0.1,0.2,0],[0.9,0.2,0],[0.5,0,0],[0.995,0.63,0],[0.72,0.99,0],[0.5,1,0],[0.28,0.99,0]];shape=mxgraph.kubernetes.icon2;kubernetesLabel=1;prIcon=api" vertex="1" parent="1">
          <mxGeometry x="350" y="410" width="83.33" height="80" as="geometry" />
        </mxCell>
        <mxCell id="eDAjQBh9nqvi1OD6s-QJ-22" value="&lt;b&gt;&lt;font style=&quot;font-size: 14px;&quot;&gt;Model&lt;/font&gt;&lt;/b&gt;" style="text;html=1;align=center;verticalAlign=middle;whiteSpace=wrap;rounded=0;" vertex="1" parent="1">
          <mxGeometry x="941" y="460" width="79" height="30" as="geometry" />
        </mxCell>
        <mxCell id="eDAjQBh9nqvi1OD6s-QJ-23" value="" style="sketch=0;outlineConnect=0;fontColor=#232F3E;gradientColor=none;fillColor=#01A88D;strokeColor=none;dashed=0;verticalLabelPosition=bottom;verticalAlign=top;align=center;html=1;fontSize=12;fontStyle=0;aspect=fixed;pointerEvents=1;shape=mxgraph.aws4.sagemaker_model;" vertex="1" parent="1">
          <mxGeometry x="942" y="376" width="78" height="78" as="geometry" />
        </mxCell>
        <mxCell id="eDAjQBh9nqvi1OD6s-QJ-26" value="&lt;b&gt;&lt;font style=&quot;font-size: 13px;&quot;&gt;Sagemaker&lt;/font&gt;&lt;/b&gt;" style="text;html=1;align=center;verticalAlign=middle;whiteSpace=wrap;rounded=0;" vertex="1" parent="1">
          <mxGeometry x="941" y="170" width="79" height="30" as="geometry" />
        </mxCell>
        <mxCell id="eDAjQBh9nqvi1OD6s-QJ-27" value="&lt;font style=&quot;font-size: 15px;&quot;&gt;&lt;b&gt;Real-time inference&lt;/b&gt;&lt;/font&gt;" style="text;html=1;align=center;verticalAlign=middle;whiteSpace=wrap;rounded=0;" vertex="1" parent="1">
          <mxGeometry x="970" y="330" width="130" height="30" as="geometry" />
        </mxCell>
        <mxCell id="eDAjQBh9nqvi1OD6s-QJ-38" style="edgeStyle=orthogonalEdgeStyle;rounded=0;orthogonalLoop=1;jettySize=auto;html=1;" edge="1" parent="1" source="eDAjQBh9nqvi1OD6s-QJ-36">
          <mxGeometry relative="1" as="geometry">
            <mxPoint x="104.5" y="320" as="targetPoint" />
          </mxGeometry>
        </mxCell>
        <mxCell id="eDAjQBh9nqvi1OD6s-QJ-36" value="&lt;span style=&quot;font-size: 15px;&quot;&gt;&lt;b&gt;Recommendation&lt;/b&gt;&lt;/span&gt;" style="text;html=1;align=center;verticalAlign=middle;whiteSpace=wrap;rounded=0;" vertex="1" parent="1">
          <mxGeometry x="40" y="435" width="130" height="30" as="geometry" />
        </mxCell>
        <mxCell id="eDAjQBh9nqvi1OD6s-QJ-55" style="edgeStyle=orthogonalEdgeStyle;rounded=0;orthogonalLoop=1;jettySize=auto;html=1;" edge="1" parent="1" source="eDAjQBh9nqvi1OD6s-QJ-43">
          <mxGeometry relative="1" as="geometry">
            <mxPoint x="390" y="139.99999999999977" as="targetPoint" />
          </mxGeometry>
        </mxCell>
        <mxCell id="eDAjQBh9nqvi1OD6s-QJ-43" value="" style="aspect=fixed;sketch=0;html=1;dashed=0;whitespace=wrap;verticalLabelPosition=bottom;verticalAlign=top;fillColor=#2875E2;strokeColor=#ffffff;points=[[0.005,0.63,0],[0.1,0.2,0],[0.9,0.2,0],[0.5,0,0],[0.995,0.63,0],[0.72,0.99,0],[0.5,1,0],[0.28,0.99,0]];shape=mxgraph.kubernetes.icon2;kubernetesLabel=1;prIcon=api" vertex="1" parent="1">
          <mxGeometry x="210" y="208.5" width="83.33" height="80" as="geometry" />
        </mxCell>
        <mxCell id="eDAjQBh9nqvi1OD6s-QJ-50" value="" style="image;aspect=fixed;html=1;points=[];align=center;fontSize=12;image=img/lib/azure2/databases/Cache_Redis.svg;" vertex="1" parent="1">
          <mxGeometry x="667.69" y="400" width="92.31" height="75" as="geometry" />
        </mxCell>
        <mxCell id="eDAjQBh9nqvi1OD6s-QJ-74" style="edgeStyle=orthogonalEdgeStyle;rounded=0;orthogonalLoop=1;jettySize=auto;html=1;entryX=0.5;entryY=0;entryDx=0;entryDy=0;" edge="1" parent="1" source="eDAjQBh9nqvi1OD6s-QJ-51" target="eDAjQBh9nqvi1OD6s-QJ-62">
          <mxGeometry relative="1" as="geometry" />
        </mxCell>
        <mxCell id="eDAjQBh9nqvi1OD6s-QJ-75" style="edgeStyle=orthogonalEdgeStyle;rounded=0;orthogonalLoop=1;jettySize=auto;html=1;entryX=0.5;entryY=0;entryDx=0;entryDy=0;" edge="1" parent="1" source="eDAjQBh9nqvi1OD6s-QJ-51" target="eDAjQBh9nqvi1OD6s-QJ-63">
          <mxGeometry relative="1" as="geometry" />
        </mxCell>
        <mxCell id="eDAjQBh9nqvi1OD6s-QJ-51" value="&lt;font style=&quot;font-size: 14px;&quot;&gt;&lt;b&gt;Saved recommendations&lt;/b&gt;&lt;/font&gt;" style="text;html=1;align=center;verticalAlign=middle;whiteSpace=wrap;rounded=0;" vertex="1" parent="1">
          <mxGeometry x="750" y="220" width="150" height="30" as="geometry" />
        </mxCell>
        <mxCell id="eDAjQBh9nqvi1OD6s-QJ-56" style="edgeStyle=orthogonalEdgeStyle;rounded=0;orthogonalLoop=1;jettySize=auto;html=1;entryX=0;entryY=0.5;entryDx=0;entryDy=0;entryPerimeter=0;" edge="1" parent="1" source="eDAjQBh9nqvi1OD6s-QJ-43" target="eDAjQBh9nqvi1OD6s-QJ-9">
          <mxGeometry relative="1" as="geometry" />
        </mxCell>
        <mxCell id="eDAjQBh9nqvi1OD6s-QJ-62" value="&lt;font style=&quot;font-size: 14px;&quot;&gt;&lt;b&gt;YES&lt;/b&gt;&lt;/font&gt;" style="text;html=1;align=center;verticalAlign=middle;whiteSpace=wrap;rounded=0;" vertex="1" parent="1">
          <mxGeometry x="744.5" y="320" width="60" height="30" as="geometry" />
        </mxCell>
        <mxCell id="eDAjQBh9nqvi1OD6s-QJ-76" style="edgeStyle=orthogonalEdgeStyle;rounded=0;orthogonalLoop=1;jettySize=auto;html=1;" edge="1" parent="1" source="eDAjQBh9nqvi1OD6s-QJ-63" target="eDAjQBh9nqvi1OD6s-QJ-23">
          <mxGeometry relative="1" as="geometry" />
        </mxCell>
        <mxCell id="eDAjQBh9nqvi1OD6s-QJ-63" value="&lt;font style=&quot;font-size: 14px;&quot;&gt;&lt;b&gt;NO&lt;/b&gt;&lt;/font&gt;" style="text;html=1;align=center;verticalAlign=middle;whiteSpace=wrap;rounded=0;" vertex="1" parent="1">
          <mxGeometry x="830" y="320" width="60" height="30" as="geometry" />
        </mxCell>
        <mxCell id="eDAjQBh9nqvi1OD6s-QJ-77" style="edgeStyle=orthogonalEdgeStyle;rounded=0;orthogonalLoop=1;jettySize=auto;html=1;entryX=0.531;entryY=-0.053;entryDx=0;entryDy=0;entryPerimeter=0;" edge="1" parent="1" source="eDAjQBh9nqvi1OD6s-QJ-62" target="eDAjQBh9nqvi1OD6s-QJ-50">
          <mxGeometry relative="1" as="geometry" />
        </mxCell>
        <mxCell id="eDAjQBh9nqvi1OD6s-QJ-78" style="edgeStyle=orthogonalEdgeStyle;rounded=0;orthogonalLoop=1;jettySize=auto;html=1;entryX=1;entryY=0.191;entryDx=0;entryDy=0;entryPerimeter=0;" edge="1" parent="1" source="eDAjQBh9nqvi1OD6s-QJ-23" target="eDAjQBh9nqvi1OD6s-QJ-50">
          <mxGeometry relative="1" as="geometry" />
        </mxCell>
        <mxCell id="eDAjQBh9nqvi1OD6s-QJ-79" style="edgeStyle=orthogonalEdgeStyle;rounded=0;orthogonalLoop=1;jettySize=auto;html=1;entryX=0.96;entryY=0.346;entryDx=0;entryDy=0;entryPerimeter=0;" edge="1" parent="1" source="eDAjQBh9nqvi1OD6s-QJ-50" target="eDAjQBh9nqvi1OD6s-QJ-18">
          <mxGeometry relative="1" as="geometry" />
        </mxCell>
        <mxCell id="eDAjQBh9nqvi1OD6s-QJ-81" value="&lt;h1 style=&quot;margin-top: 0px;&quot;&gt;Pipeline&lt;/h1&gt;&lt;div&gt;&lt;font style=&quot;font-size: 15px;&quot;&gt;Training pipeline, recording and monitoring of model metrics&lt;/font&gt;&lt;/div&gt;" style="text;html=1;whiteSpace=wrap;overflow=hidden;rounded=0;" vertex="1" parent="1">
          <mxGeometry x="910" y="50" width="180" height="120" as="geometry" />
        </mxCell>
        <mxCell id="eDAjQBh9nqvi1OD6s-QJ-82" value="&lt;font style=&quot;font-size: 15px;&quot;&gt;&lt;b&gt;Redis&lt;/b&gt;&lt;/font&gt;" style="text;html=1;align=center;verticalAlign=middle;whiteSpace=wrap;rounded=0;" vertex="1" parent="1">
          <mxGeometry x="648" y="490" width="130" height="30" as="geometry" />
        </mxCell>
      </root>
    </mxGraphModel>
  </diagram>
</mxfile>
